# File created by Blade
# Date/Time:  Thu Jan 22 15:33:09 2015
#---------------------------------------------------------
:version 1.10
:name HOM
:units
  mass 1.0
  length 1.000000
  angle deg
:documentation
     Acclaim Skeleton File
:root
   axis xyz
   order TX TY TZ RX RY RZ
   position 0.000000 0.000000 0.000000
   orientation 0 0 0
:bonedata
   begin
      id 1
      name RightUpLeg_dum
      direction -1.000000 0.000000 0.000000
      length 3.693983
      axis 0.0 0.0 0.0 xyz
   end
   begin
      id 2
      name LeftUpLeg_dum
      direction 1.000000 0.000000 0.000000
      length 3.693983
      axis 0.0 0.0 0.0 xyz
   end
   begin
      id 3
      name Spine_dum
      direction 0.000000 1.000000 0.000000
      length 2.392956
      axis 0.0 0.0 0.0 xyz
   end
   begin
      id 4
      name RightUpLeg
      direction 0.000000 -1.000000 0.000000
      length 15.795667
      axis 0.0 0.0 0.0 xyz
      dof rx ry rz
   end
   begin
      id 5
      name RightLeg
      direction 0.000000 -1.000000 0.000000
      length 14.766989
      axis 0.0 0.0 0.0 xyz
      dof rx ry rz
   end
   begin
      id 6
      name RightFoot
      direction 0.000000 -0.258819 0.965926
      length 4.962790
      axis 15.0 0.0 0.0 xyz
      dof rx ry rz
   end
   begin
      id 7
      name RightToeBase
      direction 0.000000 0.000000 1.000000
      length 2.952750
      axis 0.0 0.0 0.0 xyz
      dof rx ry rz
   end
   begin
      id 8
      name LeftUpLeg
      direction 0.000000 -1.000000 0.000000
      length 15.795667
      axis 0.0 0.0 0.0 xyz
      dof rx ry rz
   end
   begin
      id 9
      name LeftLeg
      direction 0.000000 -1.000000 0.000000
      length 14.766989
      axis 0.0 0.0 0.0 xyz
      dof rx ry rz
   end
   begin
      id 10
      name LeftFoot
      direction 0.000000 -0.258819 0.965926
      length 4.962790
      axis 15.0 0.0 0.0 xyz
      dof rx ry rz
   end
   begin
      id 11
      name LeftToeBase
      direction 0.000000 0.000000 1.000000
      length 2.952750
      axis 0.0 0.0 0.0 xyz
      dof rx ry rz
   end
   begin
      id 12
      name Spine
      direction 0.000000 1.000000 0.000000
      length 0.000000
      axis 0.0 0.0 0.0 xyz
      dof rx ry rz
   end
   begin
      id 13
      name Spine_dum1
      direction 0.000000 1.000000 0.000000
      length 13.207411
      axis 0.0 0.0 0.0 xyz
   end
   begin
      id 14
      name Spine_dum2
      direction 0.000000 1.000000 0.000000
      length 13.207411
      axis 0.0 0.0 0.0 xyz
   end
   begin
      id 15
      name Spine_dum3
      direction 0.000000 1.000000 0.000000
      length 19.250100
      axis 0.0 0.0 0.0 xyz
   end
   begin
      id 16
      name RightShoulder
      direction -1.000000 0.000000 0.000000
      length 8.140465
      axis 0.0 0.0 90.0 xyz
      dof rx ry rz
   end
   begin
      id 17
      name RightArm
      direction -1.000000 0.000000 0.000000
      length 10.649840
      axis 0.0 0.0 90.0 xyz
      dof rx ry rz
   end
   begin
      id 18
      name RightForeArm
      direction -1.000000 0.000000 0.000000
      length 8.304624
      axis 0.0 0.0 90.0 xyz
      dof ry rz rx
   end
   begin
      id 19
      name RightHand
      direction -1.000000 0.000000 0.000000
      length 0.000000
      axis 0.0 0.0 90.0 xyz
      dof rx ry rz
   end
   begin
      id 20
      name RightHand_dum1
      direction -1.000000 0.000000 0.000000
      length 3.937000
      axis 0.0 0.0 90.0 xyz
   end
   begin
      id 21
      name RightHand_dum2
      direction 0.000000 0.000000 0.000000
      length 0.000000
      axis 0.0 0.0 90.0 xyz
   end
   begin
      id 22
      name RightHandThumb1
      direction 0.000000 0.000000 1.000000
      length 3.937000
      axis 0.0 0.0 90.0 xyz
      dof rx rz ry
   end
   begin
      id 23
      name LeftShoulder
      direction 1.000000 0.000000 0.000000
      length 8.140465
      axis 0.0 0.0 -90.0 xyz
      dof rx ry rz
   end
   begin
      id 24
      name LeftArm
      direction 1.000000 0.000000 0.000000
      length 10.649840
      axis 0.0 0.0 -90.0 xyz
      dof rx ry rz
   end
   begin
      id 25
      name LeftForeArm
      direction 1.000000 0.000000 0.000000
      length 8.304624
      axis 0.0 0.0 -90.0 xyz
      dof ry rz rx
   end
   begin
      id 26
      name LeftHand
      direction 1.000000 0.000000 0.000000
      length 0.000000
      axis 0.0 0.0 -90.0 xyz
      dof rx ry rz
   end
   begin
      id 27
      name LeftHand_dum1
      direction 1.000000 0.000000 0.000000
      length 3.937000
      axis 0.0 0.0 -90.0 xyz
   end
   begin
      id 28
      name LeftHand_dum2
      direction 0.000000 0.000000 0.000000
      length 0.000000
      axis 0.0 0.0 -90.0 xyz
   end
   begin
      id 29
      name LeftHandThumb1
      direction 0.000000 0.000000 1.000000
      length 3.937000
      axis 0.0 0.0 -90.0 xyz
      dof rx rz ry
   end
   begin
      id 30
      name Head
      direction 0.000000 1.000000 0.000000
      length 4.527550
      axis 0.0 0.0 0.0 xyz
      dof rx ry rz
   end
:hierarchy
   begin
      root RightUpLeg_dum LeftUpLeg_dum Spine_dum
      RightUpLeg_dum RightUpLeg
      LeftUpLeg_dum LeftUpLeg
      Spine_dum Spine
      RightUpLeg RightLeg
      RightLeg RightFoot
      RightFoot RightToeBase
      LeftUpLeg LeftLeg
      LeftLeg LeftFoot
      LeftFoot LeftToeBase
      Spine Spine_dum1 Spine_dum2 Spine_dum3
      Spine_dum1 RightShoulder
      Spine_dum2 LeftShoulder
      Spine_dum3 Head
      RightShoulder RightArm
      RightArm RightForeArm
      RightForeArm RightHand
      RightHand RightHand_dum1 RightHand_dum2
      RightHand_dum2 RightHandThumb1
      LeftShoulder LeftArm
      LeftArm LeftForeArm
      LeftForeArm LeftHand
      LeftHand LeftHand_dum1 LeftHand_dum2
      LeftHand_dum2 LeftHandThumb1
   end

# File created by Blade
# Date/Time:  Thu Jan 22 15:33:01 2015
# Frame Rate: 120.000 fps
#------------------------------------------------------
:FULLY-SPECIFIED
:DEGREES
980
root 5.690409 20.378005 5.789372 35.436312 -78.378733 -192.664773
RightUpLeg -62.722074 -4.244171 4.885834
RightLeg 22.982166 -0.000000 -0.000000
RightFoot 32.404104 -12.409655 23.146446
RightToeBase 42.578431 -0.000000 -0.000000
LeftUpLeg -65.322702 -2.051487 -5.327992
LeftLeg 27.189810 -0.000000 -0.000000
LeftFoot 37.293700 -1.100775 -10.287601
LeftToeBase 33.318264 -0.000000 -0.000000
Spine -9.067487 5.544453 2.617432
RightShoulder -17.932422 -41.466939 -13.452985
RightArm -38.639123 -57.247897 99.369218
RightForeArm 64.442501 -0.000000 108.594060
RightHand 3.472194 0.000000 4.784378
RightHandThumb1 -24.326973 -0.000000 -32.862282
LeftShoulder -0.336839 50.010421 35.624324
LeftArm 11.961498 59.391033 -59.486239
LeftForeArm -27.082298 -0.000000 106.397974
LeftHand -16.605745 -0.000000 -17.357705
LeftHandThumb1 -26.253704 0.000000 33.147579
Head 97.379690 -12.083907 -21.792562
981
root 5.665955 20.378706 5.799955 35.563308 -78.388542 -192.879659
RightUpLeg -63.524876 -4.574497 5.221974
RightLeg 24.238972 -0.000000 -0.000000
RightFoot 32.774483 -12.181041 22.996874
RightToeBase 42.891312 -0.000000 -0.000000
LeftUpLeg -66.321950 -1.862276 -5.493570
LeftLeg 28.956269 -0.000000 -0.000000
LeftFoot 37.609487 -1.138789 -10.651169
LeftToeBase 33.372330 -0.000000 -0.000000
Spine -8.899937 5.502070 2.732720
RightShoulder -17.765065 -41.321463 -13.570166
RightArm -38.942670 -57.183351 99.612271
RightForeArm 64.380957 0.000000 108.594226
RightHand 3.487552 -0.000000 4.867664
RightHandThumb1 -24.326973 -0.000000 -32.862282
LeftShoulder -0.480617 49.989820 35.488126
LeftArm 11.983260 59.429852 -59.477420
LeftForeArm -27.006970 0.000000 106.352684
LeftHand -16.637808 -0.000000 -17.426750
LeftHandThumb1 -26.253704 0.000000 33.147579
Head 97.243794 -12.018545 -21.877689
982
root 5.641976 20.379743 5.812240 35.385424 -78.397012 -192.808903
RightUpLeg -64.396672 -4.974996 5.557598
RightLeg 25.681602 -0.000000 -0.000000
RightFoot 33.101111 -11.900284 22.834577
RightToeBase 43.101149 -0.000000 -0.000000
LeftUpLeg -67.323140 -1.696279 -5.723154
LeftLeg 30.777754 -0.000000 -0.000000
LeftFoot 37.998316 -1.359814 -11.033348
LeftToeBase 33.393478 -0.000000 -0.000000
Spine -8.736105 5.611261 2.786768
RightShoulder -17.791273 -41.339816 -13.581132
RightArm -39.088416 -57.119686 99.794095
RightForeArm 64.486406 0.000000 108.540118
RightHand 3.434967 -0.000000 4.723915
RightHandThumb1 -24.326973 -0.000000 -32.862282
LeftShoulder -0.299612 49.881358 35.568404
LeftArm 11.953343 59.423520 -59.512163
LeftForeArm -26.952656 -0.000000 106.328418
LeftHand -16.686476 -0.000000 -17.471340
LeftHandThumb1 -26.253704 0.000000 33.147579
Head 97.189871 -12.076447 -21.990752
983
root 5.620341 20.378095 5.825023 35.141673 -78.418034 -192.655770
RightUpLeg -65.310536 -5.391005 5.901568
RightLeg 27.197024 -0.000000 -0.000000
RightFoot 33.320956 -11.604684 22.665406
RightToeBase 43.499700 -0.000000 -0.000000
LeftUpLeg -68.353814 -1.484096 -6.047178
LeftLeg 32.594074 -0.000000 -0.000000
LeftFoot 38.437895 -1.662635 -11.299692
LeftToeBase 33.326246 -0.000000 -0.000000
Spine -8.575888 5.597378 2.824539
RightShoulder -17.745341 -41.365835 -13.605656
RightArm -39.108102 -57.124494 99.842154
RightForeArm 64.453097 -0.000000 108.510790
RightHand 3.490511 -0.000000 4.602615
RightHandThumb1 -24.326973 -0.000000 -32.862282
LeftShoulder -0.323067 49.872854 35.504514
LeftArm 12.013585 59.414712 -59.459408
LeftForeArm -26.898878 -0.000000 106.289509
LeftHand -16.598923 -0.000000 -17.625077
LeftHandThumb1 -26.253704 0.000000 33.147579
Head 97.112442 -12.045880 -22.058246
984
root 5.597976 20.375222 5.838460 34.922629 -78.429596 -192.557420
RightUpLeg -66.243665 -5.820922 6.279099
RightLeg 28.838648 -0.000000 -0.000000
RightFoot 33.471404 -11.330747 22.425606
RightToeBase 43.815268 -0.000000 -0.000000
LeftUpLeg -69.380026 -1.285245 -6.348402
LeftLeg 34.467208 -0.000000 -0.000000
LeftFoot 38.622100 -1.748363 -11.670199
LeftToeBase 33.261401 -0.000000 -0.000000
Spine -8.377273 5.599113 2.886523
RightShoulder -17.703637 -41.308207 -13.648588
RightArm -39.287238 -57.124248 100.026100
RightForeArm 64.464747 -0.000000 108.473148
RightHand 3.405490 -0.000000 4.374140
RightHandThumb1 -24.326973 -0.000000 -32.862282
LeftShoulder -0.355160 49.865732 35.410662
LeftArm 12.116654 59.392708 -59.343652
LeftForeArm -26.826593 -0.000000 106.256246
LeftHand -16.615523 -0.000000 -17.635237
LeftHandThumb1 -26.253704 0.000000 33.147579
Head 97.045280 -12.003642 -22.147397
985
root 5.575292 20.370579 5.850936 34.676630 -78.429372 -192.433745
RightUpLeg -67.240969 -6.301852 6.735037
RightLeg 30.641085 -0.000000 -0.000000
RightFoot 33.476298 -11.276636 22.459559
RightToeBase 44.026101 -0.000000 -0.000000
LeftUpLeg -70.437919 -1.070974 -6.705239
LeftLeg 36.406576 -0.000000 -0.000000
LeftFoot 38.661672 -1.697873 -11.861981
LeftToeBase 33.279998 -0.000000 -0.000000
Spine -8.177986 5.577310 2.946993
RightShoulder -17.645717 -41.308110 -13.671652
RightArm -39.338226 -57.095512 100.101467
RightForeArm 64.414089 -0.000000 108.419597
RightHand 3.376588 0.000000 4.432426
RightHandThumb1 -24.326973 -0.000000 -32.862282
LeftShoulder -0.392279 49.849479 35.327881
LeftArm 12.198369 59.375129 -59.266247
LeftForeArm -26.752671 -0.000000 106.201233
LeftHand -16.627026 -0.000000 -17.681604
LeftHandThumb1 -26.253704 0.000000 33.147579
Head 96.986484 -11.964677 -22.213482
986
root 5.556527 20.365004 5.861812 34.445309 -78.414355 -192.319472
RightUpLeg -68.313576 -6.809233 7.253661
RightLeg 32.600970 -0.000000 -0.000000
RightFoot 33.391294 -11.141051 22.352944
RightToeBase 44.545257 -0.000000 -0.000000
LeftUpLeg -71.533551 -0.826096 -7.128366
LeftLeg 38.407571 -0.000000 -0.000000
LeftFoot 38.621518 -1.567865 -12.056391
LeftToeBase 33.322642 -0.000000 -0.000000
Spine -7.991762 5.541827 3.004443
RightShoulder -17.598521 -41.173586 -13.689542
RightArm -39.644064 -57.062385 100.342995
RightForeArm 64.308595 -0.000000 108.400608
RightHand 3.409133 0.000000 4.411904
RightHandThumb1 -24.326973 -0.000000 -32.862282
LeftShoulder -0.408610 49.867670 35.246828
LeftArm 12.261484 59.337007 -59.211921
LeftForeArm -26.712484 0.000000 106.145845
LeftHand -16.649906 -0.000000 -17.673839
LeftHandThumb1 -26.253704 0.000000 33.147579
Head 96.951871 -11.926311 -22.257165
987
root 5.536913 20.357940 5.873296 34.094151 -78.403964 -192.090747
RightUpLeg -69.445645 -7.337658 7.781175
RightLeg 34.702023 -0.000000 -0.000000
RightFoot 33.394256 -11.005620 22.078537
RightToeBase 45.230223 -0.000000 -0.000000
LeftUpLeg -72.664412 -0.623619 -7.540999
LeftLeg 40.466588 -0.000000 -0.000000
LeftFoot 38.700853 -1.469431 -12.131767
LeftToeBase 33.433315 -0.000000 -0.000000
Spine -7.794243 5.490974 3.044504
RightShoulder -17.525471 -41.101945 -13.704428
RightArm -39.783798 -56.981787 100.460194
RightForeArm 64.257159 -0.000000 108.346094
RightHand 3.354811 0.000000 4.438707
RightHandThumb1 -24.326973 -0.000000 -32.862282
LeftShoulder -0.451532 49.881370 35.139844
LeftArm 12.336337 59.302451 -59.146575
LeftForeArm -26.687267 0.000000 106.099916
LeftHand -16.714652 -0.000000 -17.646455
LeftHandThumb1 -26.253704 0.000000 33.147579
Head 96.909499 -11.874937 -22.291273
988
root 5.518364 20.351271 5.883815 33.625443 -78.408236 -191.723479
RightUpLeg -70.699701 -7.879508 8.314068
RightLeg 37.004903 -0.000000 -0.000000
RightFoot 33.487885 -10.814928 21.738803
RightToeBase 45.817364 -0.000000 -0.000000
LeftUpLeg -73.863238 -0.435597 -7.958046
LeftLeg 42.552195 -0.000000 -0.000000
LeftFoot 39.087026 -1.603955 -12.135778
LeftToeBase 33.420756 -0.000000 -0.000000
Spine -7.631594 5.408508 3.038673
RightShoulder -17.404379 -41.123023 -13.708803
RightArm -39.747335 -56.870197 100.427473
RightForeArm 64.289011 -0.000000 108.264362
RightHand 3.348280 -0.000000 4.616056
RightHandThumb1 -24.326973 -0.000000 -32.862282
LeftShoulder -0.451956 49.917844 35.077206
LeftArm 12.328985 59.262704 -59.197205
LeftForeArm -26.675875 -0.000000 106.049038
LeftHand -16.727967 -0.000000 -17.638881
LeftHandThumb1 -26.253704 0.000000 33.147579
Head 96.874860 -11.806798 -22.307775
989
root 5.501421 20.343394 5.895498 33.216413 -78.425499 -191.442358
RightUpLeg -71.965938 -8.384650 8.834073
RightLeg 39.367956 -0.000000 -0.000000
RightFoot 33.797777 -10.543131 21.272653
RightToeBase 46.381885 -0.000000 -0.000000
LeftUpLeg -75.050223 -0.281768 -8.253544
LeftLeg 44.738402 -0.000000 -0.000000
LeftFoot 39.135871 -2.107131 -12.105804
LeftToeBase 33.665124 -0.000000 -0.000000
Spine -7.416585 5.374799 3.056337
RightShoulder -17.336484 -40.999485 -13.683569
RightArm -39.967299 -56.744263 100.557233
RightForeArm 64.194563 -0.000000 108.253825
RightHand 3.328320 -0.000000 4.640797
RightHandThumb1 -24.326973 -0.000000 -32.862282
LeftShoulder -0.560787 49.945851 34.906542
LeftArm 12.465361 59.239232 -59.052469
LeftForeArm -26.694397 -0.000000 106.009318
LeftHand -16.723611 -0.000000 -17.637527
LeftHandThumb1 -26.253704 0.000000 33.147579
Head 96.826769 -11.754279 -22.334096
